<svg width="126" height="56" viewBox="0 0 126 56" fill="none" xmlns="http://www.w3.org/2000/svg">
<g clip-path="url(#clip0_141_246)">
<path d="M6.92466 55.8939H5.43475L2.06126 50.7976V55.8939H0.57135V48.4544H2.06126L5.43475 53.5645V48.4544H6.92466V55.8939Z" fill="#659A41"/>
<path d="M13.8329 53.4087H9.52177C9.53723 53.7874 9.69776 54.1457 9.97011 54.4093C10.2331 54.6516 10.5805 54.7811 10.9379 54.7702C11.1838 54.7849 11.4284 54.7245 11.6393 54.5971C11.8502 54.4697 12.0174 54.2812 12.1189 54.0566H13.7263C13.561 54.6173 13.2174 55.1087 12.7476 55.4565C12.2329 55.832 11.6074 56.0245 10.9707 56.0033C10.4372 56.012 9.91063 55.882 9.44249 55.626C8.99555 55.3782 8.62926 55.0071 8.38725 54.557C8.12832 54.0653 7.99851 53.5159 8.00999 52.9603C7.99842 52.4015 8.12719 51.8487 8.38452 51.3526C8.62077 50.9042 8.98277 50.5346 9.42609 50.289C9.89855 50.0483 10.4213 49.9227 10.9515 49.9227C11.4818 49.9227 12.0045 50.0483 12.477 50.289C12.9096 50.5168 13.2667 50.8654 13.5049 51.2924C13.7564 51.7609 13.8825 52.2865 13.8712 52.8181C13.8743 53.0156 13.8615 53.2131 13.8329 53.4087ZM12.3321 52.4052C12.3351 52.2309 12.2994 52.0581 12.2275 51.8992C12.1557 51.7403 12.0495 51.5994 11.9166 51.4866C11.6412 51.252 11.2885 51.1282 10.9269 51.1393C10.5851 51.1309 10.2525 51.2509 9.99472 51.4756C9.73328 51.7194 9.56912 52.0497 9.53271 52.4052H12.3321Z" fill="#659A41"/>
<path d="M23.136 49.9992L21.411 55.8939H19.7926L18.7291 51.7682L17.652 55.8857H16.0364L14.3004 49.991H15.8122L16.8565 54.5023L17.9828 50.0101H19.5602L20.6537 54.4913L21.7062 49.9992H23.136Z" fill="#659A41"/>
<path d="M32.6414 48.4654V55.8939H31.1515V52.7333H27.9666V55.8939H26.4767V48.4654H27.9666V51.5194H31.1487V48.4654H32.6414Z" fill="#659A41"/>
<path d="M35.192 55.6123C34.7417 55.3644 34.371 54.9937 34.1231 54.5433C33.8567 54.054 33.7229 53.5035 33.7349 52.9466C33.7239 52.3883 33.8617 51.8373 34.134 51.3498C34.391 50.8979 34.7699 50.5275 35.2275 50.2808C35.7042 50.033 36.2335 49.9037 36.7707 49.9037C37.308 49.9037 37.8373 50.033 38.314 50.2808C38.7721 50.5267 39.1512 50.8974 39.4075 51.3498C39.681 51.8368 39.8189 52.3882 39.8066 52.9466C39.818 53.5062 39.6762 54.0584 39.3965 54.5433C39.1381 54.994 38.7595 55.3641 38.303 55.6123C37.8227 55.8675 37.2858 55.9972 36.742 55.9896C36.2014 56.0005 35.6672 55.8705 35.192 55.6123ZM37.4883 54.4941C37.7315 54.3569 37.9291 54.1516 38.057 53.9035C38.2072 53.6075 38.2805 53.2784 38.2702 52.9466C38.2857 52.7124 38.2545 52.4775 38.1785 52.2555C38.1025 52.0335 37.9831 51.8288 37.8273 51.6533C37.6884 51.5074 37.5207 51.392 37.3348 51.3144C37.1489 51.2367 36.9489 51.1985 36.7475 51.2022C36.5476 51.1977 36.349 51.2355 36.1647 51.3133C35.9805 51.391 35.8148 51.5069 35.6786 51.6533C35.3708 52.0112 35.2157 52.4755 35.2466 52.9466C35.215 53.4158 35.3658 53.8791 35.6677 54.2398C35.8011 54.387 35.9646 54.5037 36.1472 54.582C36.3297 54.6603 36.527 54.6984 36.7256 54.6937C36.9922 54.6975 37.2552 54.6315 37.4883 54.5023V54.4941Z" fill="#659A41"/>
<path d="M43.1391 50.1796C43.4611 49.996 43.8263 49.9016 44.197 49.9062V51.4729H43.8034C43.422 51.4447 43.044 51.5619 42.7454 51.801C42.5076 52.0224 42.3873 52.4052 42.3873 52.952V55.8885H40.8974V49.9992H42.3873V50.9124C42.5717 50.6083 42.8304 50.3562 43.1391 50.1796Z" fill="#659A41"/>
<path d="M45.2988 49.034C45.2165 48.9527 45.1512 48.8558 45.1067 48.749C45.0621 48.6423 45.0392 48.5277 45.0392 48.412C45.0392 48.2963 45.0621 48.1818 45.1067 48.075C45.1512 47.9683 45.2165 47.8714 45.2988 47.79C45.3855 47.7068 45.488 47.6417 45.6002 47.5985C45.7123 47.5553 45.832 47.5349 45.9522 47.5385C46.0727 47.5352 46.1927 47.5557 46.3053 47.5988C46.4179 47.642 46.5208 47.707 46.6083 47.79C46.6905 47.8714 46.7558 47.9683 46.8004 48.075C46.8449 48.1818 46.8679 48.2963 46.8679 48.412C46.8679 48.5277 46.8449 48.6423 46.8004 48.749C46.7558 48.8558 46.6905 48.9527 46.6083 49.034C46.5208 49.1171 46.4179 49.1821 46.3053 49.2252C46.1927 49.2684 46.0727 49.2889 45.9522 49.2856C45.832 49.2892 45.7123 49.2688 45.6002 49.2256C45.488 49.1824 45.3855 49.1173 45.2988 49.034ZM46.6875 49.9882V55.883H45.1976V49.9992L46.6875 49.9882Z" fill="#659A41"/>
<path d="M49.5197 54.6718H52.1469V55.8939H47.8275V54.6937L50.4109 51.2214H47.8466V49.9992H52.125V51.2022L49.5197 54.6718Z" fill="#659A41"/>
<path d="M54.3831 55.6123C53.9323 55.3651 53.5614 54.9942 53.3142 54.5433C53.0471 54.0542 52.9123 53.5038 52.9233 52.9466C52.9124 52.3883 53.0501 51.8373 53.3224 51.3498C53.5802 50.8986 53.9589 50.5283 54.4159 50.2808C54.8926 50.033 55.4219 49.9037 55.9592 49.9037C56.4964 49.9037 57.0257 50.033 57.5024 50.2808C57.9597 50.5278 58.3386 50.8982 58.5959 51.3498C58.8682 51.8373 59.006 52.3883 58.995 52.9466C59.0064 53.5062 58.8646 54.0584 58.585 54.5433C58.3255 54.9933 57.9471 55.3631 57.4914 55.6123C57.0113 55.8678 56.4743 55.9976 55.9305 55.9896C55.3907 56.0005 54.8573 55.8705 54.3831 55.6123ZM56.6768 54.4941C56.9205 54.3577 57.1184 54.1522 57.2454 53.9035C57.3956 53.6075 57.4689 53.2784 57.4586 52.9466C57.4741 52.7124 57.443 52.4775 57.3669 52.2555C57.2909 52.0335 57.1715 51.8288 57.0158 51.6533C56.877 51.5072 56.7093 51.3916 56.5234 51.3139C56.3375 51.2362 56.1374 51.1982 55.9359 51.2022C55.736 51.198 55.5375 51.236 55.3534 51.3137C55.1692 51.3915 55.0034 51.5072 54.867 51.6533C54.5592 52.0112 54.4041 52.4755 54.4351 52.9466C54.4046 53.4157 54.5553 53.8786 54.8561 54.2398C54.9898 54.3866 55.1535 54.503 55.3359 54.5813C55.5184 54.6596 55.7155 54.6979 55.914 54.6937C56.1806 54.6975 56.4436 54.6315 56.6768 54.5023V54.4941Z" fill="#659A41"/>
<path d="M65.0585 50.5788C65.2842 50.8299 65.4577 51.1233 65.569 51.442C65.6802 51.7607 65.7269 52.0983 65.7065 52.4353V55.8939H64.2165V52.6376C64.2456 52.2415 64.1202 51.8496 63.8666 51.544C63.7427 51.4164 63.5931 51.3168 63.4276 51.2517C63.2621 51.1866 63.0846 51.1577 62.9071 51.1667C62.7274 51.1574 62.5479 51.1863 62.3801 51.2513C62.2124 51.3163 62.0603 51.4161 61.9338 51.544C61.676 51.8475 61.5483 52.2405 61.5784 52.6376V55.8939H60.0885V49.9992H61.5784V50.7319C61.7799 50.4734 62.0406 50.2671 62.3384 50.1304C62.657 49.9829 63.0044 49.9082 63.3554 49.9117C63.67 49.8993 63.9837 49.9522 64.2768 50.067C64.5699 50.1818 64.8361 50.3561 65.0585 50.5788Z" fill="#659A41"/>
<path d="M74.9029 52.7114C75.1686 53.0442 75.3115 53.4585 75.3075 53.8844C75.3145 54.2545 75.2128 54.6186 75.015 54.9315C74.806 55.2438 74.5119 55.4896 74.1675 55.6397C73.7545 55.8182 73.3077 55.905 72.858 55.8939H69.6567V48.4654H72.7213C73.1682 48.455 73.6123 48.5379 74.0253 48.7087C74.36 48.8509 74.6453 49.0887 74.8455 49.3922C75.0321 49.688 75.1272 50.0323 75.1188 50.382C75.1341 50.7754 75.0123 51.1619 74.7744 51.4756C74.5367 51.7699 74.2155 51.9853 73.8531 52.0935C74.2682 52.1603 74.643 52.3809 74.9029 52.7114ZM71.1467 51.5303H72.5135C72.8063 51.5493 73.0965 51.4652 73.3337 51.2924C73.4307 51.2075 73.507 51.1016 73.5568 50.9826C73.6065 50.8637 73.6284 50.7349 73.6207 50.6062C73.6281 50.4763 73.6061 50.3464 73.5564 50.2262C73.5067 50.106 73.4306 49.9985 73.3337 49.9117C73.0979 49.7357 72.8071 49.6495 72.5135 49.6684H71.1467V51.5303ZM73.4922 54.4257C73.5948 54.3362 73.6755 54.2243 73.7281 54.0987C73.7807 53.9731 73.8038 53.8371 73.7957 53.7012C73.8025 53.5603 73.7773 53.4196 73.7219 53.2898C73.6665 53.1601 73.5824 53.0446 73.4758 52.952C73.2311 52.7601 72.9253 52.663 72.6147 52.6786H71.1467V54.68H72.6475C72.9505 54.6995 73.2504 54.6093 73.4922 54.4257Z" fill="#659A41"/>
<path d="M77.5847 55.6123C77.1338 55.3651 76.763 54.9942 76.5158 54.5433C76.2495 54.054 76.1157 53.5035 76.1276 52.9466C76.1153 52.3882 76.2532 51.8368 76.5267 51.3498C76.783 50.8974 77.1621 50.5267 77.6203 50.2808C78.0969 50.033 78.6263 49.9037 79.1635 49.9037C79.7007 49.9037 80.23 50.033 80.7067 50.2808C81.1637 50.5283 81.5424 50.8986 81.8002 51.3498C82.0725 51.8373 82.2103 52.3883 82.1993 52.9466C82.2107 53.5062 82.0689 54.0584 81.7893 54.5433C81.5261 54.9951 81.1428 55.3651 80.6821 55.6123C80.2019 55.8678 79.6649 55.9976 79.1211 55.9896C78.585 55.9986 78.0557 55.8686 77.5847 55.6123ZM79.8784 54.4941C80.1221 54.3577 80.3199 54.1522 80.447 53.9035C80.5972 53.6075 80.6705 53.2784 80.6602 52.9466C80.6757 52.7124 80.6445 52.4775 80.5685 52.2555C80.4925 52.0335 80.3731 51.8288 80.2173 51.6533C80.0786 51.5072 79.9109 51.3916 79.725 51.3139C79.5391 51.2362 79.339 51.1982 79.1375 51.2022C78.9376 51.198 78.7391 51.236 78.5549 51.3137C78.3708 51.3915 78.205 51.5072 78.0686 51.6533C77.7608 52.0112 77.6057 52.4755 77.6367 52.9466C77.6061 53.4157 77.7568 53.8786 78.0577 54.2398C78.1914 54.3866 78.355 54.503 78.5375 54.5813C78.72 54.6596 78.9171 54.6979 79.1156 54.6937C79.3822 54.6975 79.6452 54.6315 79.8784 54.5023V54.4941Z" fill="#659A41"/>
<path d="M85.0234 51.2213V54.0758C85.0163 54.1534 85.0256 54.2318 85.0505 54.3057C85.0755 54.3796 85.1156 54.4475 85.1683 54.505C85.3073 54.6082 85.4798 54.656 85.6521 54.639H86.3438V55.8939H85.4034C84.1495 55.8939 83.5216 55.2842 83.5198 54.0648V51.2213H82.8172V49.9992H83.5198V48.5392H85.0206V49.9992H86.341V51.2213H85.0234Z" fill="#659A41"/>
<path d="M87.3908 51.3389C87.6085 50.9006 87.9447 50.5321 88.3613 50.2753C88.7732 50.0259 89.2467 49.8971 89.7282 49.9035C90.1063 49.8912 90.4818 49.9697 90.8233 50.1324C91.1648 50.2951 91.4624 50.5372 91.691 50.8386V49.9992H93.1892V55.8939H91.691V55.0327C91.4849 55.3221 91.212 55.5575 90.8955 55.719C90.5362 55.9059 90.1359 55.9999 89.7309 55.9924C89.2478 56.0004 88.7728 55.8674 88.364 55.6096C87.9467 55.3465 87.6108 54.9726 87.3935 54.5296C87.1498 54.0313 87.028 53.4821 87.0381 52.9274C87.0273 52.3774 87.1482 51.8327 87.3908 51.3389ZM91.4641 52.0142C91.3313 51.7665 91.1327 51.5602 90.89 51.4182C90.6529 51.2822 90.3843 51.2106 90.1109 51.2104C89.8424 51.209 89.5783 51.2788 89.3455 51.4127C89.1059 51.5545 88.9094 51.7586 88.7768 52.0033C88.6244 52.286 88.549 52.6037 88.5581 52.9247C88.5496 53.2491 88.625 53.5702 88.7768 53.857C88.9093 54.1094 89.1077 54.321 89.3509 54.4695C89.5799 54.609 89.8428 54.6828 90.1109 54.6827C90.3843 54.6825 90.6529 54.6109 90.89 54.4749C91.1327 54.333 91.3313 54.1267 91.4641 53.8789C91.6046 53.5882 91.6775 53.2695 91.6775 52.9466C91.6775 52.6237 91.6046 52.305 91.4641 52.0142Z" fill="#659A41"/>
<path d="M99.619 50.5788C99.8447 50.8299 100.018 51.1233 100.129 51.442C100.241 51.7607 100.287 52.0984 100.267 52.4353V55.894H98.777V52.6376C98.8075 52.2414 98.6819 51.8489 98.4271 51.544C98.3032 51.4164 98.1535 51.3168 97.988 51.2517C97.8225 51.1867 97.6451 51.1577 97.4675 51.1667C97.2879 51.1575 97.1083 51.1863 96.9406 51.2513C96.7729 51.3163 96.6208 51.4161 96.4943 51.544C96.2364 51.8475 96.1087 52.2405 96.1389 52.6376V55.894H94.649V49.9992H96.1389V50.732C96.3368 50.4747 96.5925 50.2677 96.8852 50.1277C97.2038 49.9802 97.5512 49.9055 97.9022 49.909C98.2192 49.8947 98.5358 49.9469 98.8315 50.0622C99.1271 50.1776 99.3954 50.3536 99.619 50.5788Z" fill="#659A41"/>
<path d="M101.77 49.0341C101.688 48.9527 101.623 48.8558 101.578 48.7491C101.534 48.6423 101.511 48.5278 101.511 48.4121C101.511 48.2964 101.534 48.1818 101.578 48.075C101.623 47.9683 101.688 47.8714 101.77 47.79C101.95 47.6283 102.183 47.5388 102.425 47.5388C102.667 47.5388 102.9 47.6283 103.08 47.79C103.162 47.8714 103.228 47.9683 103.272 48.075C103.317 48.1818 103.34 48.2964 103.34 48.4121C103.34 48.5278 103.317 48.6423 103.272 48.7491C103.228 48.8558 103.162 48.9527 103.08 49.0341C102.9 49.1958 102.667 49.2854 102.425 49.2854C102.183 49.2854 101.95 49.1958 101.77 49.0341ZM103.159 49.9883V55.883H101.669V49.9992L103.159 49.9883Z" fill="#659A41"/>
<path d="M104.619 51.3444C104.854 50.8989 105.212 50.5299 105.65 50.2808C106.111 50.0237 106.633 49.8935 107.162 49.9035C107.811 49.8773 108.45 50.0699 108.977 50.4503C109.468 50.8347 109.809 51.3796 109.939 51.9896H108.332C108.258 51.7478 108.107 51.5366 107.902 51.3881C107.682 51.236 107.418 51.1593 107.151 51.1694C106.957 51.1614 106.765 51.199 106.59 51.2793C106.414 51.3596 106.259 51.4803 106.139 51.6315C105.896 52.0251 105.767 52.4785 105.767 52.9411C105.767 53.4037 105.896 53.8571 106.139 54.2508C106.259 54.402 106.414 54.5226 106.59 54.6029C106.765 54.6832 106.957 54.7209 107.151 54.7128C107.412 54.7352 107.673 54.6655 107.889 54.5157C108.105 54.3659 108.261 54.1455 108.332 53.8926H109.939C109.801 54.4963 109.459 55.0341 108.971 55.4155C108.45 55.8043 107.811 56.0031 107.162 55.9787C106.633 55.9887 106.111 55.8586 105.65 55.6014C105.212 55.3523 104.854 54.9833 104.619 54.5378C104.373 54.0397 104.245 53.4914 104.245 52.9356C104.245 52.3799 104.373 51.8316 104.619 51.3335V51.3444Z" fill="#659A41"/>
<path d="M111.008 51.3389C111.226 50.9006 111.562 50.5321 111.978 50.2753C112.39 50.0255 112.864 49.8966 113.345 49.9035C113.748 49.8965 114.145 49.9905 114.502 50.1769C114.812 50.3388 115.081 50.5676 115.292 50.8468V50.0074H116.795V55.9021H115.292V55.0409C115.086 55.3289 114.816 55.5641 114.502 55.7272C114.141 55.9138 113.74 56.0078 113.334 56.0006C112.851 56.0086 112.376 55.8756 111.968 55.6178C111.55 55.3547 111.214 54.9808 110.997 54.5378C110.752 54.0399 110.63 53.4905 110.642 52.9356C110.632 52.3815 110.758 51.8335 111.008 51.3389ZM115.079 52.0142C114.947 51.7658 114.748 51.5594 114.504 51.4182C114.268 51.2819 114.001 51.2102 113.728 51.2104C113.459 51.2086 113.195 51.2785 112.963 51.4127C112.723 51.5551 112.526 51.759 112.391 52.0033C112.241 52.2867 112.167 52.6041 112.175 52.9247C112.167 53.2487 112.241 53.5696 112.391 53.857C112.525 54.109 112.725 54.3205 112.968 54.4695C113.197 54.6094 113.46 54.6832 113.728 54.6827C114.001 54.6829 114.268 54.6113 114.504 54.4749C114.748 54.3337 114.947 54.1273 115.079 53.8789C115.219 53.5882 115.292 53.2694 115.292 52.9466C115.292 52.6237 115.219 52.305 115.079 52.0142Z" fill="#659A41"/>
<path d="M119.742 48.017V55.8939H118.252V48.017H119.742Z" fill="#659A41"/>
<path d="M122.167 55.7299C121.808 55.5753 121.495 55.3316 121.257 55.0217C121.039 54.7356 120.911 54.391 120.891 54.032H122.391C122.405 54.1444 122.442 54.2528 122.5 54.3502C122.558 54.4476 122.636 54.532 122.728 54.598C122.939 54.7513 123.196 54.8292 123.458 54.8194C123.691 54.8319 123.923 54.7728 124.122 54.6499C124.195 54.6027 124.255 54.538 124.297 54.4615C124.338 54.3851 124.36 54.2995 124.36 54.2125C124.36 54.1196 124.333 54.0289 124.28 53.9522C124.228 53.8755 124.154 53.8165 124.067 53.7832C123.768 53.6499 123.457 53.5446 123.138 53.4688C122.77 53.3852 122.409 53.2747 122.058 53.1379C121.777 53.0258 121.529 52.8465 121.333 52.6157C121.12 52.3484 121.012 52.0116 121.03 51.6697C121.025 51.3504 121.12 51.0375 121.303 50.7757C121.511 50.4896 121.795 50.2678 122.124 50.1359C122.515 49.9723 122.937 49.8931 123.362 49.9035C123.967 49.873 124.563 50.0591 125.043 50.4284C125.251 50.6045 125.419 50.8218 125.538 51.0666C125.658 51.3114 125.724 51.5782 125.735 51.8502H124.308C124.299 51.7438 124.269 51.6403 124.219 51.5462C124.168 51.4521 124.099 51.3694 124.015 51.3034C123.813 51.1566 123.567 51.0832 123.318 51.0956C123.1 51.0815 122.883 51.1329 122.695 51.2432C122.626 51.2878 122.569 51.3495 122.531 51.4223C122.493 51.4951 122.474 51.5766 122.476 51.6588C122.476 51.7553 122.504 51.8498 122.557 51.9305C122.61 52.0112 122.685 52.0746 122.774 52.1127C123.072 52.2477 123.382 52.3521 123.701 52.4243C124.06 52.5107 124.412 52.6213 124.756 52.7552C125.034 52.871 125.279 53.052 125.472 53.2829C125.684 53.5497 125.796 53.8827 125.787 54.2234C125.794 54.5498 125.699 54.8703 125.513 55.1393C125.306 55.4245 125.021 55.6445 124.693 55.7736C124.303 55.9334 123.884 56.0107 123.463 56.0006C123.017 56.0049 122.575 55.9125 122.167 55.7299Z" fill="#659A41"/>
<path d="M37.9367 44.9329H29.041L8.89846 14.4886V44.9329H0V0.509125H8.89846L29.041 31.0136V0.509125H37.9367V44.9329Z" fill="white"/>
<path d="M123.586 25.9281C125.178 27.9076 126.032 30.379 126.003 32.9192C126.049 35.1362 125.442 37.3177 124.256 39.1913C123.089 40.9921 121.405 42.4011 119.204 43.4182C117.002 44.4353 114.397 44.9402 111.388 44.9329H92.2515V0.571991H110.554C113.561 0.571991 116.156 1.05957 118.337 2.03474C120.519 3.0099 122.174 4.36784 123.302 6.10856C124.431 7.87092 125.017 9.92672 124.986 12.0197C124.986 14.6025 124.297 16.7634 122.919 18.5023C121.507 20.2632 119.589 21.5494 117.424 22.1878C119.873 22.6224 122.07 23.9564 123.586 25.9281ZM101.169 18.8741H109.302C111.418 18.8741 113.049 18.3975 114.196 17.4442C115.342 16.4909 115.913 15.1238 115.91 13.343C115.91 11.564 115.338 10.1869 114.196 9.21177C113.053 8.23661 111.418 7.74902 109.291 7.74902H101.158L101.169 18.8741ZM115.18 36.1591C116.386 35.142 116.989 33.7021 116.989 31.8392C116.989 29.9308 116.352 28.4371 115.076 27.358C113.8 26.279 112.083 25.7385 109.925 25.7367H101.158V37.6848H110.117C112.276 37.6848 113.96 37.1762 115.169 36.1591H115.18Z" fill="white"/>
<path d="M90.9037 42.9698C71.5677 51.9924 57.8578 27.1639 74.2468 12.0744C78.2682 8.37241 81.3546 5.51254 85.1819 0.131813C86.5762 -1.81487 92.8365 17.6903 87.0491 27.6862C79.1621 41.2911 68.022 34.0976 79.1211 21.7996C78.7177 21.8989 78.3206 22.0221 77.9319 22.1687C75.9089 23.153 73.7656 27.462 73.7656 27.0901C73.7656 23.8529 76.74 18.4722 80.5482 15.3963C80.7696 15.2159 73.1478 18.423 72.1008 25.1216C68.7683 46.4203 88.6402 43.3417 90.8983 42.9726" fill="url(#paint0_radial_141_246)"/>
<path d="M40.4873 43.4373C57.6199 51.4401 64.4024 34.2043 64.6403 29.1571C65.2362 16.531 54.1617 11.7217 46.2009 0.593865C44.8067 -1.35009 38.5463 18.1523 44.331 28.1509C52.2207 41.7559 63.3581 34.5597 52.259 22.2617C52.6622 22.3613 53.0593 22.4845 53.4482 22.6308C55.4712 23.6178 57.6117 27.9267 57.6117 27.5522C57.6117 24.3122 54.6373 18.9343 50.8319 15.8557C50.6078 15.6752 58.2323 18.885 59.2793 25.5809C62.6091 46.8796 42.7399 43.801 40.4791 43.4319" fill="url(#paint1_radial_141_246)"/>
<path d="M66.0728 12.8946C59.8917 12.8946 59.8862 3.21863 66.0728 3.21863C72.2593 3.21863 72.2593 12.8946 66.0728 12.8946Z" fill="#659A41"/>
</g>
<defs>
<radialGradient id="paint0_radial_141_246" cx="0" cy="0" r="1" gradientUnits="userSpaceOnUse" gradientTransform="translate(65.8705 24.9341) scale(51.2748 52.8194)">
<stop stop-color="#8AC440"/>
<stop offset="0.39" stop-color="#7AB240"/>
<stop offset="1" stop-color="#659A41"/>
</radialGradient>
<radialGradient id="paint1_radial_141_246" cx="0" cy="0" r="1" gradientUnits="userSpaceOnUse" gradientTransform="translate(65.8705 24.9341) scale(51.2748 52.8194)">
<stop stop-color="#8AC440"/>
<stop offset="0.39" stop-color="#7AB240"/>
<stop offset="1" stop-color="#659A41"/>
</radialGradient>
<clipPath id="clip0_141_246">
<rect width="126" height="56" fill="white" transform="translate(0 -0.00762939)"/>
</clipPath>
</defs>
</svg>
